# xmcd
#
# Track frame offsets:
#	150
#	12187
#	31455
#	46447
#	57280
#	70856
#	91244
#	104677
#	124188
#	138650
#	152731
#	166492
#	179986
#	192787
#	205329
#	216303
#	230515
#	242940
#
# Disc length: 3420 seconds
#
# Revision: 0
# Processed by: cddbd v1.5.2PL0 Copyright (c) Steve Scherf et al.
# Submitted via: audiograbber 1.83.01
#
DISCID=120d5a12
DTITLE=Various Artist - Best Of Country Songs Disc 11
DYEAR=2011
DGENRE=Country
TTITLE0=Dolly Parton - Letter To Heaven
TTITLE1=Dave Trevis - Sweet Country Musik
TTITLE2=Frankie Laine - Sixteen Tons
TTITLE3=Jerry Lee Lewis and Lind Gail Lewis - Jackson
TTITLE4=Faron Young - Do Not Forsake Me ( High Noon)
TTITLE5=Gram Parson and Emmylou Harris - Love Hurts
TTITLE6=Alabama - Patches
TTITLE7=Jimmy Dean - Let Me Sing My Song
TTITLE8=Carl Perkins - Red Neck
TTITLE9=Jean Shepard - I Wish I Was A Teddy Bear
TTITLE10=George Hamilton IV. - Candian Pacifc
TTITLE11=Patti Page - Tennessee Walz
TTITLE12=Lee Hazlewood - These Boots Are Made For Walking
TTITLE13=Bobby Bare - 500 Miles Away From Home
TTITLE14=Porter Wagoner - Enough To Make A Grow Man Cry
TTITLE15=Trader Station - Country Guitar No.1
TTITLE16=Tommy Cash - Six White Horses
TTITLE17=Warner Mack - Amazing Grace
EXTD=
EXTT0=
EXTT1=
EXTT2=
EXTT3=
EXTT4=
EXTT5=
EXTT6=
EXTT7=
EXTT8=
EXTT9=
EXTT10=
EXTT11=
EXTT12=
EXTT13=
EXTT14=
EXTT15=
EXTT16=
EXTT17=
PLAYORDER=
